<svg height="512" viewBox="0 0 24 24" width="512" xmlns="http://www.w3.org/2000/svg">
  <path d="M14.001 20.07c-.323 0-.641-.156-.833-.445-.529-.795-1.807-.795-2.336 0-.306.459-.926.584-1.387.277-.459-.306-.584-.927-.277-1.387C9.801 17.566 10.859 17 12 17s2.199.566 2.832 1.516c.307.459.182 1.081-.277 1.387-.171.113-.364.167-.554.167z" fill="#FEDA6A"/>
  <path d="M16.5 24c-1.93 0-3.5-1.57-3.5-3.5s1.57-3.5 3.5-3.5 3.5 1.57 3.5 3.5-1.57 3.5-3.5 3.5zM7.5 24C5.57 24 4 22.43 4 20.5S5.57 17 7.5 17s3.5 1.57 3.5 3.5S9.43 24 7.5 24zM22 15c-.309 0-.607-.144-.8-.4l-2.194-2.926c-1.019-1.357-2.906-1.77-4.4-.956-1.631.89-3.58.89-5.211 0-1.487-.812-3.381-.402-4.4.956L2.8 14.6c-.258.344-.704.485-1.116.349C1.275 14.812 1 14.43 1 14c0-1.489.147-3.193.439-5.065C1.977 5.495 4.887 3 8.36 3h3.01c2.012 0 3.911-.881 5.209-2.417.433-.449.969-.635 1.509-.569.544.068 1.015.383 1.291.863l.104.18C20.624 3.029 23 7.135 23 14c0 .431-.275.813-.684.949-.104.034-.211.051-.316.051z" fill="#FEDA6A"/>
</svg>